<svg width="1440" height="1024" viewBox="0 0 1440 1024" fill="none" xmlns="http://www.w3.org/2000/svg">
  <g clip-path="url(#clip0_271_300)">
    <rect width="1440" height="1024" fill="#98D0C2"/>
    <path d="M899 850.49L1107.52 219.24L1316 850.49H899Z" fill="#1A9589"/>
    <path
      d="M1107.52 246.018C1126.3 246.018 1141.53 230.792 1141.53 212.009C1141.53 193.226 1126.3 178 1107.52 178C1088.73 178 1073.51 193.226 1073.51 212.009C1073.51 230.792 1088.73 246.018 1107.52 246.018Z"
      fill="#F2D214"/>
    <path
      d="M1073.47 382.835C1085.06 382.835 1094.45 373.443 1094.45 361.856C1094.45 350.27 1085.06 340.878 1073.47 340.878C1061.89 340.878 1052.5 350.27 1052.5 361.856C1052.5 373.443 1061.89 382.835 1073.47 382.835Z"
      fill="#F2D214"/>
    <path
      d="M1153.12 669.565C1164.71 669.565 1174.1 660.172 1174.1 648.586C1174.1 637 1164.71 627.607 1153.12 627.607C1141.54 627.607 1132.14 637 1132.14 648.586C1132.14 660.172 1141.54 669.565 1153.12 669.565Z"
      fill="#F2D214"/>
    <path
      d="M1013.41 766.477C1030.59 766.477 1044.52 752.549 1044.52 735.368C1044.52 718.186 1030.59 704.258 1013.41 704.258C996.224 704.258 982.296 718.186 982.296 735.368C982.296 752.549 996.224 766.477 1013.41 766.477Z"
      fill="#F2D214"/>
    <path
      d="M1182.8 534.833C1199.98 534.833 1213.91 520.904 1213.91 503.723C1213.91 486.542 1199.98 472.613 1182.8 472.613C1165.62 472.613 1151.69 486.542 1151.69 503.723C1151.69 520.904 1165.62 534.833 1182.8 534.833Z"
      fill="#F2D214"/>
    <path
      d="M1236.35 824.006C1246.93 824.006 1255.51 815.43 1255.51 804.851C1255.51 794.273 1246.93 785.697 1236.35 785.697C1225.77 785.697 1217.2 794.273 1217.2 804.851C1217.2 815.43 1225.77 824.006 1236.35 824.006Z"
      fill="#F2D214"/>
    <path
      d="M1006.17 554.02C1016.75 554.02 1025.33 545.444 1025.33 534.865C1025.33 524.287 1016.75 515.711 1006.17 515.711C995.595 515.711 987.019 524.287 987.019 534.865C987.019 545.444 995.595 554.02 1006.17 554.02Z"
      fill="#F2D214"/>
    <path d="M954 -62.8848C954 -62.8848 1184.44 183.667 1469.66 211.545" stroke="#FFFEF8" stroke-miterlimit="10"/>
    <path
      d="M1015.11 101.241C1028 101.241 1038.44 90.7975 1038.44 77.9151C1038.44 65.0326 1028 54.5894 1015.11 54.5894C1002.23 54.5894 991.789 65.0326 991.789 77.9151C991.789 90.7975 1002.23 101.241 1015.11 101.241Z"
      fill="#FFFEF8"/>
    <path
      d="M1015.11 116.55C1036.45 116.55 1053.75 99.2532 1053.75 77.9159C1053.75 56.5787 1036.45 39.2815 1015.11 39.2815C993.777 39.2815 976.479 56.5787 976.479 77.9159C976.479 99.2532 993.777 116.55 1015.11 116.55Z"
      stroke="#F2D214" stroke-miterlimit="10"/>
    <path
      d="M1262.19 241.88C1275.07 241.88 1285.52 231.437 1285.52 218.555C1285.52 205.672 1275.07 195.229 1262.19 195.229C1249.31 195.229 1238.86 205.672 1238.86 218.555C1238.86 231.437 1249.31 241.88 1262.19 241.88Z"
      fill="#FFFEF8"/>
    <path
      d="M1262.19 257.189C1283.53 257.189 1300.82 239.892 1300.82 218.555C1300.82 197.217 1283.53 179.92 1262.19 179.92C1240.85 179.92 1223.56 197.217 1223.56 218.555C1223.56 239.892 1240.85 257.189 1262.19 257.189Z"
      stroke="#F2D214" stroke-miterlimit="10"/>
    <path
      d="M1420.64 139.876C1433.52 139.876 1443.96 129.432 1443.96 116.55C1443.96 103.667 1433.52 93.2241 1420.64 93.2241C1407.75 93.2241 1397.31 103.667 1397.31 116.55C1397.31 129.432 1407.75 139.876 1420.64 139.876Z"
      fill="#FFFEF8"/>
    <path
      d="M1420.63 155.184C1441.97 155.184 1459.27 137.887 1459.27 116.55C1459.27 95.2123 1441.97 77.915 1420.63 77.915C1399.3 77.915 1382 95.2123 1382 116.55C1382 137.887 1399.3 155.184 1420.63 155.184Z"
      stroke="#F2D214" stroke-miterlimit="10"/>
    <path
      d="M1399.73 294.816C1407.51 294.816 1413.83 288.504 1413.83 280.716C1413.83 272.929 1407.51 266.616 1399.73 266.616C1391.94 266.616 1385.63 272.929 1385.63 280.716C1385.63 288.504 1391.94 294.816 1399.73 294.816Z"
      fill="#FFFEF8"/>
    <path
      d="M1399.73 304.042C1412.61 304.042 1423.05 293.599 1423.05 280.716C1423.05 267.834 1412.61 257.391 1399.73 257.391C1386.84 257.391 1376.4 267.834 1376.4 280.716C1376.4 293.599 1386.84 304.042 1399.73 304.042Z"
      stroke="#F2D214" stroke-miterlimit="10"/>
    <path
      d="M1291.55 412.775C1299.34 412.775 1305.65 406.462 1305.65 398.674C1305.65 390.887 1299.34 384.574 1291.55 384.574C1283.77 384.574 1277.45 390.887 1277.45 398.674C1277.45 406.462 1283.77 412.775 1291.55 412.775Z"
      fill="#FFFEF8"/>
    <path
      d="M1291.56 422C1304.44 422 1314.88 411.557 1314.88 398.674C1314.88 385.792 1304.44 375.349 1291.56 375.349C1278.68 375.349 1268.23 385.792 1268.23 398.674C1268.23 411.557 1278.68 422 1291.56 422Z"
      stroke="#F2D214" stroke-miterlimit="10"/>
    <path d="M483.663 45.1152C483.663 45.1152 253.226 291.667 -32.0001 319.545" stroke="#FFFEF8"
          stroke-miterlimit="10"/>
    <path
      d="M422.549 209.241C409.667 209.241 399.223 198.797 399.223 185.915C399.223 173.033 409.667 162.589 422.549 162.589C435.431 162.589 445.875 173.033 445.875 185.915C445.875 198.797 435.431 209.241 422.549 209.241Z"
      fill="#FFFEF8"/>
    <path
      d="M422.549 224.55C401.212 224.55 383.915 207.253 383.915 185.916C383.915 164.579 401.212 147.281 422.549 147.281C443.887 147.281 461.184 164.579 461.184 185.916C461.184 207.253 443.887 224.55 422.549 224.55Z"
      stroke="#F2D214" stroke-miterlimit="10"/>
    <path
      d="M215.398 73.9605C202.516 73.9605 192.073 63.5172 192.073 50.6348C192.073 37.7524 202.516 27.3091 215.398 27.3091C228.281 27.3091 238.724 37.7524 238.724 50.6348C238.724 63.5172 228.281 73.9605 215.398 73.9605Z"
      fill="#FFFEF8"/>
    <path
      d="M215.398 89.2689C194.06 89.2689 176.763 71.9717 176.763 50.6345C176.763 29.2972 194.06 12 215.398 12C236.735 12 254.032 29.2972 254.032 50.6345C254.032 71.9717 236.735 89.2689 215.398 89.2689Z"
      stroke="#F2D214" stroke-miterlimit="10"/>
    <path
      d="M175.474 349.88C162.592 349.88 152.148 339.437 152.148 326.555C152.148 313.672 162.592 303.229 175.474 303.229C188.357 303.229 198.8 313.672 198.8 326.555C198.8 339.437 188.357 349.88 175.474 349.88Z"
      fill="#FFFEF8"/>
    <path
      d="M175.474 365.189C154.137 365.189 136.839 347.892 136.839 326.555C136.839 305.218 154.137 287.92 175.474 287.92C196.811 287.92 214.108 305.218 214.108 326.555C214.108 347.892 196.811 365.189 175.474 365.189Z"
      stroke="#F2D214" stroke-miterlimit="10"/>
    <path
      d="M17.028 247.876C4.14561 247.876 -6.29764 237.432 -6.29764 224.55C-6.29764 211.667 4.14561 201.224 17.028 201.224C29.9105 201.224 40.3538 211.667 40.3538 224.55C40.3538 237.432 29.9105 247.876 17.028 247.876Z"
      fill="#FFFEF8"/>
    <path
      d="M17.0284 263.184C-4.30887 263.184 -21.6061 245.887 -21.6061 224.55C-21.6061 203.212 -4.30887 185.915 17.0284 185.915C38.3656 185.915 55.6628 203.212 55.6628 224.55C55.6628 245.887 38.3656 263.184 17.0284 263.184Z"
      stroke="#F2D214" stroke-miterlimit="10"/>
    <path
      d="M37.9367 402.816C30.1494 402.816 23.8365 396.504 23.8365 388.716C23.8365 380.929 30.1494 374.616 37.9367 374.616C45.724 374.616 52.0369 380.929 52.0369 388.716C52.0369 396.504 45.724 402.816 37.9367 402.816Z"
      fill="#FFFEF8"/>
    <path
      d="M37.937 412.042C25.0545 412.042 14.6113 401.599 14.6113 388.716C14.6113 375.834 25.0545 365.391 37.937 365.391C50.8194 365.391 61.2627 375.834 61.2627 388.716C61.2627 401.599 50.8194 412.042 37.937 412.042Z"
      stroke="#F2D214" stroke-miterlimit="10"/>
    <path
      d="M146.109 520.775C138.322 520.775 132.009 514.462 132.009 506.674C132.009 498.887 138.322 492.574 146.109 492.574C153.896 492.574 160.209 498.887 160.209 506.674C160.209 514.462 153.896 520.775 146.109 520.775Z"
      fill="#FFFEF8"/>
    <path
      d="M146.105 530C133.223 530 122.78 519.557 122.78 506.674C122.78 493.792 133.223 483.349 146.105 483.349C158.988 483.349 169.431 493.792 169.431 506.674C169.431 519.557 158.988 530 146.105 530Z"
      stroke="#F2D214" stroke-miterlimit="10"/>
    <path
      d="M319.336 299.2C311.548 299.2 305.235 292.887 305.235 285.1C305.235 277.313 311.548 271 319.336 271C327.123 271 333.436 277.313 333.436 285.1C333.436 292.887 327.123 299.2 319.336 299.2Z"
      fill="#FFFEF8"/>
    <path
      d="M319.336 308.426C306.454 308.426 296.01 297.983 296.01 285.1C296.01 272.218 306.454 261.774 319.336 261.774C332.218 261.774 342.662 272.218 342.662 285.1C342.662 297.983 332.218 308.426 319.336 308.426Z"
      stroke="#F2D214" stroke-miterlimit="10"/>
    <path
      d="M390.643 56.3148C382.855 56.3148 376.543 50.002 376.543 42.2147C376.543 34.4274 382.855 28.1145 390.643 28.1145C398.43 28.1145 404.743 34.4274 404.743 42.2147C404.743 50.002 398.43 56.3148 390.643 56.3148Z"
      fill="#FFFEF8"/>
    <path
      d="M390.642 65.5403C377.76 65.5403 367.317 55.0971 367.317 42.2146C367.317 29.3322 377.76 18.8889 390.642 18.8889C403.525 18.8889 413.968 29.3322 413.968 42.2146C413.968 55.0971 403.525 65.5403 390.642 65.5403Z"
      stroke="#F2D214" stroke-miterlimit="10"/>
    <path
      d="M395.88 403.944C388.092 403.944 381.779 397.632 381.779 389.844C381.779 382.057 388.092 375.744 395.88 375.744C403.667 375.744 409.98 382.057 409.98 389.844C409.98 397.632 403.667 403.944 395.88 403.944Z"
      fill="#FFFEF8"/>
    <path
      d="M395.88 413.17C382.997 413.17 372.554 402.727 372.554 389.844C372.554 376.962 382.997 366.519 395.88 366.519C408.762 366.519 419.205 376.962 419.205 389.844C419.205 402.727 408.762 413.17 395.88 413.17Z"
      stroke="#F2D214" stroke-miterlimit="10"/>
    <path
      d="M-23 828.94C70.625 828.94 181.571 756.292 320.253 754.651C458.935 753.011 611.543 883.543 726 897.839C840.457 912.134 921.091 785.937 1117.82 826.245C1371.31 878.153 1332.81 643.101 1475 659.857V1062H-23V828.94Z"
      fill="#FFFEF8"/>
    <path
      d="M270.718 615.767C273.881 612.652 278.686 612.192 282.384 614.308C281.956 614.19 281.489 614.111 281.022 614.111C278.019 614.111 275.576 616.503 275.576 619.46C275.576 622.416 278.019 624.821 281.022 624.821C284.012 624.821 286.455 622.429 286.455 619.46C286.455 619.197 286.415 618.934 286.374 618.684C287.923 622.154 287.269 626.359 284.386 629.21C280.608 632.929 274.495 632.929 270.731 629.21C266.954 625.491 266.954 619.473 270.718 615.767ZM283.184 690.895C299.602 664.797 305.328 623.323 305.328 623.323L323.307 615.149C324.428 614.61 324.148 612.968 322.76 612.968H303.379C300.336 607.265 289.831 598 274.335 598C265.125 598 257.09 600.418 249.869 605.07C249.869 605.07 239.351 612.101 224.041 625.123L177.205 663.653C173.601 666.65 169.183 668.555 163.096 668.555H104.153C102.485 668.555 103.032 669.922 103.326 670.737C107.477 683.273 118.542 694.443 137.923 694.443L124.081 708.333C123.534 708.885 123.534 710.252 124.909 710.252H177.485C215.499 710.252 238.857 693.996 254.193 671.17C255.502 669.238 256.743 667.254 257.917 665.23C258.465 665.506 258.558 666.111 258.278 666.663C254.394 675.927 244.717 694.732 227.004 705.889C220.918 709.437 218.983 710.515 210.4 713.787C209.786 714.037 209.573 714.602 209.84 715.43L231.102 774H243.262L223.774 720.318C236.455 720.318 266.767 717.007 283.184 690.895ZM237.803 728.216L254.407 773.987H266.58L249.148 726.035C245.838 726.863 241.954 727.677 237.803 728.216Z"
      fill="#FFFEF8"/>
    <rect x="-19" y="-17" width="1494" height="1075" fill="#003C4F" fill-opacity="0.6"/>
  </g>
  <defs>
    <filter id="filter0_b_271_300" x="-23" y="-21" width="1502" height="1083" filterUnits="userSpaceOnUse"
            color-interpolation-filters="sRGB">
      <feFlood flood-opacity="0" result="BackgroundImageFix"/>
      <feGaussianBlur in="BackgroundImage" stdDeviation="2"/>
      <feComposite in2="SourceAlpha" operator="in" result="effect1_backgroundBlur_271_300"/>
      <feBlend mode="normal" in="SourceGraphic" in2="effect1_backgroundBlur_271_300" result="shape"/>
    </filter>
    <clipPath id="clip0_271_300">
      <rect width="1440" height="1024" fill="white"/>
    </clipPath>
  </defs>
</svg>
